<svg xmlns="http://www.w3.org/2000/svg" version="1.1" xmlns:xlink="http://www.w3.org/1999/xlink" xmlns:svgjs="http://svgjs.dev/svgjs" width="1000" height="1000" viewBox="0 0 1000 1000"><rect width="1000" height="1000" fill="#ffffff"></rect><g transform="matrix(0.7,0,0,0.7,149.92356000000007,411.35278142105255)"><svg viewBox="0 0 375 95" data-background-color="#ffffff" preserveAspectRatio="xMidYMid meet" height="253" width="1000" xmlns="http://www.w3.org/2000/svg" xmlns:xlink="http://www.w3.org/1999/xlink"><g id="tight-bounds" transform="matrix(1,0,0,1,0.040949999999980946,0.05215000000001169)"><svg viewBox="0 0 374.91810000000004 94.89569999999999" height="94.89569999999999" width="374.91810000000004"><g><svg viewBox="0 0 374.91810000000004 94.89569999999999" height="94.89569999999999" width="374.91810000000004"><g><svg viewBox="0 0 374.91810000000004 94.89569999999999" height="94.89569999999999" width="374.91810000000004"><g id="textblocktransform"><svg viewBox="0 0 374.91810000000004 94.89569999999999" height="94.89569999999999" width="374.91810000000004" id="textblock"><g><svg viewBox="0 0 374.91810000000004 94.89569999999999" height="94.89569999999999" width="374.91810000000004"><g><svg><g></g><g></g></svg></g><g><svg><g><svg></svg></g><g></g></svg></g><g id="text-0"><svg viewBox="0 0 374.91810000000004 94.89569999999999" height="94.89569999999999" width="374.91810000000004"><g transform="matrix(1,0,0,1,0,28.247849999999996)"><svg width="118.95000000000002" viewBox="5.2 -37.25 118.94 38.4" height="38.4" data-palette-color="#ffffff"><path d="M16.8 0L5.2 0 5.2-36.15 15.05-36.15Q20.4-36.15 24.18-34.5 27.95-32.85 30.25-30.15 32.55-27.45 33.63-24.18 34.7-20.9 34.7-17.65L34.7-17.65Q34.7-13.55 33.27-10.3 31.85-7.05 29.35-4.75 26.85-2.45 23.63-1.23 20.4 0 16.8 0L16.8 0ZM10.05-31.5L10.05-4.65 15.85-4.65Q18.85-4.65 21.38-5.55 23.9-6.45 25.78-8.15 27.65-9.85 28.7-12.33 29.75-14.8 29.75-17.95L29.75-17.95Q29.75-21.3 28.65-23.83 27.55-26.35 25.65-28.05 23.75-29.75 21.35-30.63 18.95-31.5 16.3-31.5L16.3-31.5 10.05-31.5ZM42.85 0L42.85-36.15 47.7-36.15 47.7 0 42.85 0ZM89.55 1.15L89.4 1.15 61.45-27.2 62.85-26.85 62.95 0 58.1 0 58.1-37.25 58.35-37.25 86-8.8 84.84-9.05 84.75-36.15 89.55-36.15 89.55 1.15ZM99.94 0L99.94-36.15 123.44-36.15 123.44-31.5 104.79-31.5 104.79-20.5 121.44-20.5 121.44-15.85 104.79-15.85 104.79-4.65 124.14-4.65 124.14 0 99.94 0Z" opacity="1" transform="matrix(1,0,0,1,0,0)" fill="#ffffff" class="undefined-lv-0"></path></svg></g><g><svg xmlns="http://www.w3.org/2000/svg" xmlns:xlink="http://www.w3.org/1999/xlink" version="1.1" x="133.88620000000003" y="0" viewBox="8.800000000000004 8 83.6 83.6" enable-background="new 0 0 100 100" xml:space="preserve" height="94.89569999999999" width="94.89569999999999" class="icon-z$-0" data-fill-palette-color="accent" id="z$-0"><g fill="#ffffff" data-fill-palette-color="accent"><path fill="#ffffff" d="M50.6 91.6c-23.1 0-41.8-18.8-41.8-41.8 0-23.1 18.8-41.8 41.8-41.8 23.1 0 41.8 18.8 41.8 41.8C92.4 72.9 73.6 91.6 50.6 91.6zM50.6 9.9c-22 0-39.8 17.9-39.8 39.8s17.9 39.8 39.8 39.8c22 0 39.8-17.9 39.8-39.8S72.5 9.9 50.6 9.9z" data-fill-palette-color="accent"></path><path fill="#ffffff" d="M50.6 82.4c-18 0-32.7-14.6-32.7-32.7 0-18 14.6-32.7 32.7-32.7 18 0 32.7 14.6 32.7 32.7C83.2 67.8 68.6 82.4 50.6 82.4zM50.6 19.1c-16.9 0-30.7 13.8-30.7 30.7 0 16.9 13.8 30.7 30.7 30.7s30.7-13.8 30.7-30.7C81.2 32.9 67.5 19.1 50.6 19.1z" data-fill-palette-color="accent"></path><path fill="#ffffff" d="M69.8 66.6c-0.6 0-1-0.4-1-1v-9.2c-2.3-0.7-4.1-2.7-4.6-5-1.6-8.1 0.3-13 2.1-15.7 1.6-2.5 2.9-3.1 3-3.2l1.5-0.8v23.9c0 0 0 0 0 0v10C70.8 66.2 70.3 66.6 69.8 66.6zM68.8 35.6c-0.2 0.3-0.5 0.7-0.8 1.1-1.6 2.4-3.2 6.8-1.8 14.2 0.3 1.4 1.3 2.7 2.6 3.3V35.6z" data-fill-palette-color="accent"></path><path fill="#ffffff" d="M54.3 66.3c-0.6 0-1-0.4-1-1v-17c-1-0.1-2.4-0.7-3.7-2.2C48 44 48 35.6 48 34c0-0.5 0.5-1 1-1 0 0 0 0 0 0 0.6 0 1 0.5 1 1 0 3.8 0.3 9.7 1.2 10.9 1.3 1.7 2.9 1.5 2.9 1.5l1.1-0.1v19C55.3 65.9 54.9 66.3 54.3 66.3z" data-fill-palette-color="accent"></path><path fill="#ffffff" d="M54.3 66.3c-0.6 0-1-0.4-1-1v-19l1.1 0.1c0.1 0 1.7 0.2 2.9-1.5 0.9-1.2 1.3-7.1 1.2-10.9 0-0.6 0.4-1 1-1 0 0 0 0 0 0 0.5 0 1 0.4 1 1 0 1.7 0 10-1.6 12.2-1.2 1.6-2.7 2.1-3.7 2.2v17C55.3 65.9 54.9 66.3 54.3 66.3z" data-fill-palette-color="accent"></path><path fill="#ffffff" d="M52.7 45.7c-0.5 0-1-0.4-1-1l-0.3-10.6c0-0.6 0.4-1 1-1 0.5 0 1 0.4 1 1l0.3 10.6C53.8 45.2 53.3 45.7 52.7 45.7 52.8 45.7 52.8 45.7 52.7 45.7z" data-fill-palette-color="accent"></path><path fill="#ffffff" d="M55.9 45.7C55.9 45.7 55.9 45.7 55.9 45.7c-0.6 0-1-0.5-1-1L55.2 34c0-0.6 0.5-1 1-1 0.6 0 1 0.5 1 1l-0.3 10.6C56.9 45.2 56.4 45.7 55.9 45.7z" data-fill-palette-color="accent"></path><g fill="#ffffff" data-fill-palette-color="accent"><path fill="#ffffff" d="M36.4 66.4c-0.6 0-1-0.4-1-1V54.1c0-0.6 0.4-1 1-1s1 0.4 1 1v11.3C37.4 66 37 66.4 36.4 66.4z" data-fill-palette-color="accent"></path><g fill="#ffffff" data-fill-palette-color="accent"><path fill="#ffffff" d="M36.4 55.1c-7.1 0-9.7-7.5-9.7-12.2 0-4.6 2.1-9.3 2.1-9.5l0.3-0.6h14.6l0.3 0.6c0.1 0.2 2.1 5 2.1 9.5C46.1 47.6 43.5 55.1 36.4 55.1zM30.5 34.8c-0.5 1.4-1.7 4.9-1.7 8.1 0 3.9 2.1 10.2 7.7 10.2 5.6 0 7.7-6.3 7.7-10.2 0-3.3-1.2-6.8-1.7-8.1H30.5z" data-fill-palette-color="accent"></path><path fill="#ffffff" d="M44.3 66.4H28.6c-0.6 0-1-0.4-1-1 0-0.6 0.4-1 1-1h15.8c0.6 0 1 0.4 1 1C45.3 66 44.9 66.4 44.3 66.4z" data-fill-palette-color="accent"></path><path fill="#ffffff" d="M45.1 42.3H33.1c-0.6 0-1-0.4-1-1 0-0.6 0.4-1 1-1h11.9c0.6 0 1 0.4 1 1C46.1 41.9 45.6 42.3 45.1 42.3z" data-fill-palette-color="accent"></path></g></g></g></svg></g><g transform="matrix(1,0,0,1,243.71810000000002,26.62284999999999)"><svg width="131.20000000000002" viewBox="5.2 -37.95 131.19 37.95" height="37.95" data-palette-color="#ffffff"><path d="M5.2 0L5.2-36.15 28.7-36.15 28.7-31.5 10.05-31.5 10.05-20.5 26.7-20.5 26.7-15.85 10.05-15.85 10.05-4.65 29.4-4.65 29.4 0 5.2 0ZM38.95 0L34.2 0 50-37.65 50.3-37.65 66.05 0 60.5 0 48.7-30.05 52.15-32.3 38.95 0ZM42.05-9.5L43.45-13.7 56.9-13.7 58.5-9.5 42.05-9.5ZM100.55 0L70.2 0Q70.75-0.8 71.87-2.45 73-4.1 74.5-6.35 76-8.6 77.72-11.2 79.45-13.8 81.27-16.5 83.1-19.2 84.82-21.78 86.55-24.35 88.05-26.58 89.55-28.8 90.67-30.43 91.8-32.05 92.35-32.8L92.35-32.8 93-31.5 76.3-31.5Q75.35-31.5 74.4-31.85 73.45-32.2 72.85-32.9 72.25-33.6 72.25-34.55L72.25-34.55 72.25-37.95 76.75-37.95 76.75-37.3Q76.75-36.4 77.1-36.27 77.45-36.15 78.3-36.15L78.3-36.15 99.95-36.15 78.1-4.05 77.8-4.65 100.55-4.65 100.55 0ZM118.04 0L118.04-12.05 104.64-36.15 110.59-36.15 121.34-16.2 119.84-16.1 130.49-36.15 136.39-36.15 122.89-12.05 122.89 0 118.04 0Z" opacity="1" transform="matrix(1,0,0,1,0,0)" fill="#ffffff" class="undefined-lv-1"></path></svg></g></svg></g></svg></g></svg></g></svg></g><g></g></svg></g><defs></defs></svg><rect width="374.91810000000004" height="94.89569999999999" fill="none" stroke="none" visibility="hidden"></rect></g></svg></g></svg>